/* XPM */
static char * eight_xpm[] = {
"13 21 75 1",
" 	c #FFFFFE",
".	c #DCDCDC",
"+	c #919191",
"@	c #5A5A5A",
"#	c #565656",
"$	c #898989",
"%	c #D5D5D5",
"&	c #CBCBCB",
"*	c #000000",
"=	c #BDBDBD",
"-	c #FBFBFB",
";	c #424242",
">	c #A3A3A3",
",	c #EEEEEE",
"'	c #F1F1F1",
")	c #B1B1B1",
"!	c #262626",
"~	c #F4F4F4",
"{	c #E3E3E3",
"]	c #4F4F4F",
"^	c #FCFCFC",
"/	c #6C6C6C",
"(	c #D7D7D7",
"_	c #DBDBDB",
":	c #818181",
"<	c #989898",
"[	c #CDCDCD",
"}	c #979797",
"|	c #CECECE",
"1	c #EDEDED",
"2	c #4B4B4B",
"3	c #FEFEFE",
"4	c #656565",
"5	c #E1E1E1",
"6	c #929292",
"7	c #949494",
"8	c #E2E2E2",
"9	c #E4E4E4",
"0	c #9F9F9F",
"a	c #7C7C7C",
"b	c #F9F9F9",
"c	c #757575",
"d	c #666666",
"e	c #F5F5F5",
"f	c #B6B6B6",
"g	c #0D0D0D",
"h	c #6D6D6D",
"i	c #717171",
"j	c #1C1C1C",
"k	c #A9A9A9",
"l	c #E7E7E7",
"m	c #404040",
"n	c #E6E6E6",
"o	c #ECECEC",
"p	c #535353",
"q	c #B9B9B9",
"r	c #ABABAB",
"s	c #BCBCBC",
"t	c #A8A8A8",
"u	c #BEBEBE",
"v	c #CCCCCC",
"w	c #B4B4B4",
"x	c #A6A6A6",
"y	c #D8D8D8",
"z	c #2E2E2E",
"A	c #DFDFDF",
"B	c #454545",
"C	c #848484",
"D	c #626262",
"E	c #727272",
"F	c #F8F8F8",
"G	c #3B3B3B",
"H	c #323232",
"I	c #A0A0A0",
"J	c #EFEFEF",
"             ",
"             ",
"   .+@#$%    ",
"  &******=   ",
" -;*>,')*!~  ",
" {*]^   /*(  ",
" _*:    <*[  ",
" .*:    }*|  ",
" 1*2-  34*5  ",
"  6*7890*a3  ",
"  bc****de   ",
"  f*ghij*k   ",
" l*mn  op*.  ",
" q*r    s*k  ",
" t*u    [*7  ",
" t*=    v*7  ",
" w*x    f*>  ",
" y*zA  nB*&  ",
" 3C**Ddg*E-  ",
"  FkG**HIe   ",
"    ^J,-     "};
