/* XPM */
static char * five_xpm[] = {
"13 21 47 1",
" 	c #FFFFFE",
".	c #F7F7F7",
"+	c #888888",
"@	c #F4F4F4",
"#	c #000000",
"$	c #1C1C1C",
"%	c #E7E7E7",
"&	c #F9F9F9",
"*	c #EEEEEE",
"=	c #FBFBFB",
"-	c #B9B9B9",
";	c #222222",
">	c #2A2A2A",
",	c #AAAAAA",
"'	c #585858",
")	c #636363",
"!	c #A9A9A9",
"~	c #C0C0C0",
"{	c #CDCDCD",
"]	c #A7A7A7",
"^	c #B2B2B2",
"/	c #606060",
"(	c #E0E0E0",
"_	c #838383",
":	c #D8D8D8",
"<	c #848484",
"[	c #ECECEC",
"}	c #D1D1D1",
"|	c #E4E4E4",
"1	c #CFCFCF",
"2	c #898989",
"3	c #5C5C5C",
"4	c #E2E2E2",
"5	c #EFEFEF",
"6	c #0D0D0D",
"7	c #DDDDDD",
"8	c #C5C5C5",
"9	c #2E2E2E",
"0	c #9F9F9F",
"a	c #686868",
"b	c #5A5A5A",
"c	c #B6B6B6",
"d	c #454545",
"e	c #BBBBBB",
"f	c #FEFEFE",
"g	c #EDEDED",
"h	c #FDFDFD",
"             ",
"             ",
" .++++++++   ",
" @########   ",
" @#$%%%%%%   ",
" @#$         ",
" @#$         ",
" @#$ &*=     ",
" @#$-;#>,=   ",
" @###')##!   ",
" @##~  {#;.  ",
" &]^    /#(  ",
"        _#:  ",
"        <#:  ",
"        <#:  ",
" [}|    _#:  ",
" 1#2    3#4  ",
" 5667  8#9&  ",
"  0#6ab##c   ",
"  =,9##def   ",
"    =g*h     "};
