/* XPM */
static char * four_xpm[] = {
"13 21 43 1",
" 	c #FFFFFE",
".	c #FDFDFD",
"+	c #939393",
"@	c #8C8C8C",
"#	c #F1F1F1",
"$	c #D7D7D7",
"%	c #000000",
"&	c #6C6C6C",
"*	c #989898",
"=	c #BDBDBD",
"-	c #F7F7F7",
";	c #2A2A2A",
">	c #EFEFEF",
",	c #C8C8C8",
"'	c #838383",
")	c #7F7F7F",
"!	c #CACACA",
"~	c #EDEDED",
"{	c #B7B7B7",
"]	c #979797",
"^	c #CECECE",
"/	c #F9F9F9",
"(	c #606060",
"_	c #D6D6D6",
":	c #555555",
"<	c #F0F0F0",
"[	c #DFDFDF",
"}	c #474747",
"|	c #FCFCFC",
"1	c #A4A4A4",
"2	c #A8A8A8",
"3	c #FBFBFB",
"4	c #3D3D3D",
"5	c #E1E1E1",
"6	c #D1D1D1",
"7	c #636363",
"8	c #A1A1A1",
"9	c #848484",
"0	c #D3D3D3",
"a	c #B3B3B3",
"b	c #E7E7E7",
"c	c #DCDCDC",
"d	c #FEFEFE",
"             ",
"             ",
"     .+@#    ",
"     $%&     ",
"     *%=     ",
"    -;%>     ",
"    ,%'      ",
"    )%!      ",
"   ~%;-      ",
"   {%]  ^,/  ",
"   (%_  :%<  ",
"  [%}|  :%<  ",
"  1%2   :%<  ",
" 34%5   :%<  ",
" 6%(    :%<  ",
" *%78888%%90 ",
" @%%%%%%%%%a ",
" bcccccc%%!~ ",
"        :%<  ",
"        :%<  ",
"        d.   "};
