/* XPM */
static char * nine_xpm[] = {
"13 21 58 1",
" 	c #FFFFFF",
".	c #FBFBFB",
"+	c #BDBDBD",
"@	c #777777",
"#	c #515151",
"$	c #6D6D6D",
"%	c #AFAFAF",
"&	c #F6F6F6",
"*	c #FDFDFD",
"=	c #868686",
"-	c #000000",
";	c #656565",
">	c #CBCBCB",
",	c #424242",
"'	c #D2D2D2",
")	c #F2F2F2",
"!	c #DEDEDE",
"~	c #626262",
"{	c #939393",
"]	c #BEBEBE",
"^	c #D9D9D9",
"/	c #727272",
"(	c #DDDDDD",
"_	c #F5F5F5",
":	c #161616",
"<	c #FEFEFE",
"[	c #686868",
"}	c #E3E3E3",
"|	c #FAFAFA",
"1	c #6E6E6E",
"2	c #DCDCDC",
"3	c #F3F3F3",
"4	c #0D0D0D",
"5	c #8E8E8E",
"6	c #B5B5B5",
"7	c #D1D1D1",
"8	c #585858",
"9	c #CACACA",
"0	c #2A2A2A",
"a	c #E1E1E1",
"b	c #4B4B4B",
"c	c #9D9D9D",
"d	c #CCCCCC",
"e	c #9A9A9A",
"f	c #909090",
"g	c #838383",
"h	c #C4C4C4",
"i	c #E5E5E5",
"j	c #454545",
"k	c #F9F9F9",
"l	c #979797",
"m	c #B6B6B6",
"n	c #EDEDED",
"o	c #A6A6A6",
"p	c #A5A5A5",
"q	c #EBEBEB",
"r	c #B3B3B3",
"s	c #929292",
"             ",
"             ",
"  .+@#$%&    ",
" *=-----;&   ",
" >-,')!~-%   ",
" {-]   ^-~   ",
" /-(   _-:<  ",
" [-}   |--.  ",
" 1-2   3-4<  ",
" 5-6   7-8   ",
" 9-0]a9b-c   ",
" *5------2   ",
"  *defg-~<   ",
"      =-h    ",
"     i-jk    ",
"     l-m     ",
"    n403     ",
"    o-p      ",
"   304q      ",
"   r-s       ",
"             "};
