/* XPM */
static char * one_xpm[] = {
"13 21 16 1",
" 	c #FFFFFE",
".	c #E4E4E4",
"+	c #909090",
"@	c #888888",
"#	c #AAAAAA",
"$	c #FBFBFB",
"%	c #B2B2B2",
"&	c #161616",
"*	c #000000",
"=	c #7C7C7C",
"-	c #E5E5E5",
";	c #474747",
">	c #A3A3A3",
",	c #9F9F9F",
"'	c #F5F5F5",
")	c #DCDCDC",
"             ",
"             ",
"  .+@#       ",
"$%&**=       ",
"-*;>*=       ",
"-,')*=       ",
"   )*=       ",
"   )*=       ",
"   )*=       ",
"   )*=       ",
"   )*=       ",
"   )*=       ",
"   )*=       ",
"   )*=       ",
"   )*=       ",
"   )*=       ",
"   )*=       ",
"   )*=       ",
"   )*=       ",
"   )*=       ",
"             "};
