/* XPM */
static char * seven_xpm[] = {
"13 21 45 1",
" 	c #FFFFFF",
".	c #8E8E8E",
"+	c #888888",
"@	c #B2B2B2",
"#	c #2E2E2E",
"$	c #000000",
"%	c #8C8C8C",
"&	c #DBDBDB",
"*	c #E7E7E7",
"=	c #A7A7A7",
"-	c #A4A4A4",
";	c #F2F2F2",
">	c #858585",
",	c #D1D1D1",
"'	c #717171",
")	c #686868",
"!	c #F4F4F4",
"~	c #F9F9F9",
"{	c #222222",
"]	c #D8D8D8",
"^	c #757575",
"/	c #ACACAC",
"(	c #DCDCDC",
"_	c #F0F0F0",
":	c #2A2A2A",
"<	c #FAFAFA",
"[	c #CACACA",
"}	c #898989",
"|	c #999999",
"1	c #BEBEBE",
"2	c #FEFEFE",
"3	c #454545",
"4	c #E6E6E6",
"5	c #E3E3E3",
"6	c #494949",
"7	c #BBBBBB",
"8	c #9B9B9B",
"9	c #818181",
"0	c #F8F8F8",
"a	c #1C1C1C",
"b	c #EFEFEF",
"c	c #D6D6D6",
"d	c #656565",
"e	c #AAAAAA",
"f	c #A9A9A9",
"             ",
"             ",
" .+++++++@   ",
" #$$$$$$$%   ",
" #$&***=$-   ",
" #$;   >$,   ",
" ')!  ~{$!   ",
"      ]$^    ",
"      /$@    ",
"      )$(    ",
"     _$:<    ",
"     [$}     ",
"     |$1     ",
"    23$4     ",
"    5$62     ",
"    7$8      ",
"    9$[      ",
"   0a$b      ",
"   c$d       ",
"   e$f       ",
"             "};
