/* XPM */
static char * six_xpm[] = {
"13 21 63 1",
" 	c #FFFFFE",
".	c #D4D4D4",
"+	c #888888",
"@	c #A6A6A6",
"#	c #FEFEFE",
"$	c #6C6C6C",
"%	c #000000",
"&	c #C9C9C9",
"*	c #D7D7D7",
"=	c #535353",
"-	c #FBFBFB",
";	c #828282",
">	c #BFBFBF",
",	c #E3E3E3",
"'	c #404040",
")	c #F8F8F8",
"!	c #969696",
"~	c #B4B4B4",
"{	c #EDEDED",
"]	c #0D0D0D",
"^	c #2E2E2E",
"/	c #F4F4F4",
"(	c #A9A9A9",
"_	c #BEBEBE",
":	c #BBBBBB",
"<	c #DBDBDB",
"[	c #F9F9F9",
"}	c #3B3B3B",
"|	c #8A8A8A",
"1	c #CCCCCC",
"2	c #979797",
"3	c #C3C3C3",
"4	c #A3A3A3",
"5	c #BABABA",
"6	c #9B9B9B",
"7	c #9F9F9F",
"8	c #686868",
"9	c #777777",
"0	c #EEEEEE",
"a	c #161616",
"b	c #696969",
"c	c #FAFAFA",
"d	c #6D6D6D",
"e	c #E1E1E1",
"f	c #FDFDFD",
"g	c #858585",
"h	c #CDCDCD",
"i	c #E6E6E6",
"j	c #4D4D4D",
"k	c #B9B9B9",
"l	c #F2F2F2",
"m	c #8B8B8B",
"n	c #9C9C9C",
"o	c #4F4F4F",
"p	c #262626",
"q	c #353535",
"r	c #323232",
"s	c #EAEAEA",
"t	c #EBEBEB",
"u	c #868686",
"v	c #757575",
"w	c #E2E2E2",
"x	c #F6F6F6",
"             ",
"             ",
"     .+@     ",
"    #$%&     ",
"    *%=-     ",
"    ;%>      ",
"   ,%')      ",
"   !%~       ",
"  {]^/       ",
"  (%;_:<     ",
" [}%%%%%|-   ",
" 1%%234]%5   ",
" 6%7   :%8   ",
" 9%*   0%a#  ",
" b%,   c%%-  ",
" d%e   )%%f  ",
" g%h   i%j   ",
" k%dl [m%n   ",
" /o%pbq%rs   ",
"  tu%%%vw    ",
"    xt/      "};
