/* XPM */
static char * three_xpm[] = {
"13 21 68 1",
" 	c #FFFFFF",
".	c #FAFAFA",
"+	c #B9B9B9",
"@	c #767676",
"#	c #515151",
"$	c #696969",
"%	c #A8A8A8",
"&	c #F2F2F2",
"*	c #FDFDFD",
"=	c #848484",
"-	c #000000",
";	c #565656",
">	c #F4F4F4",
",	c #D4D4D4",
"'	c #383838",
")	c #D2D2D2",
"!	c #F3F3F3",
"~	c #DFDFDF",
"{	c #626262",
"]	c #B4B4B4",
"^	c #A4A4A4",
"/	c #AFAFAF",
"(	c #CDCDCD",
"_	c #838383",
":	c #A5A5A5",
"<	c #727272",
"[	c #DBDBDB",
"}	c #DEDEDE",
"|	c #737373",
"1	c #C8C8C8",
"2	c #9A9A9A",
"3	c #E7E7E7",
"4	c #D1D1D1",
"5	c #535353",
"6	c #262626",
"7	c #E4E4E4",
"8	c #C0C0C0",
"9	c #DADADA",
"0	c #878787",
"a	c #5D5D5D",
"b	c #606060",
"c	c #EFEFEF",
"d	c #FEFEFE",
"e	c #909090",
"f	c #F6F6F6",
"g	c #161616",
"h	c #2A2A2A",
"i	c #FBFBFB",
"j	c #A7A7A7",
"k	c #FCFCFC",
"l	c #3B3B3B",
"m	c #E6E6E6",
"n	c #F9F9F9",
"o	c #939393",
"p	c #8C8C8C",
"q	c #F8F8F8",
"r	c #A3A3A3",
"s	c #717171",
"t	c #E3E3E3",
"u	c #323232",
"v	c #6C6C6C",
"w	c #404040",
"x	c #D5D5D5",
"y	c #707070",
"z	c #636363",
"A	c #D3D3D3",
"B	c #F5F5F5",
"C	c #ECECEC",
"             ",
"             ",
"  .+@#$%&    ",
" *=-----;>   ",
" ,-')!~{-]   ",
" ^-/   (-_   ",
" :<[   }-|   ",
"       }-@   ",
"       1-2   ",
"    >34567   ",
"    8--69    ",
"    )0a-bc   ",
"      d/-e   ",
"       f-g*  ",
"        h-!  ",
"ijjk    h-!  ",
" l-m   >--n  ",
" o-pq ir-s   ",
" tg-uvw--x   ",
"  9y---zA    ",
"    BC&      "};
