/* XPM */
static char * two_xpm[] = {
"13 21 52 1",
" 	c #FFFFFF",
".	c #CACACA",
"+	c #808080",
"@	c #535353",
"#	c #636363",
"$	c #9E9E9E",
"%	c #E8E8E8",
"&	c #A8A8A8",
"*	c #000000",
"=	c #2A2A2A",
"-	c #DEDEDE",
";	c #E2E2E2",
">	c #0D0D0D",
",	c #C0C0C0",
"'	c #F2F2F2",
")	c #EAEAEA",
"!	c #868686",
"~	c #707070",
"{	c #AAAAAA",
"]	c #9B9B9B",
"^	c #EEEEEE",
"/	c #F3F3F3",
"(	c #CBCBCB",
"_	c #FEFEFE",
":	c #161616",
"<	c #FCFCFC",
"[	c #FBFBFB",
"}	c #F1F1F1",
"|	c #F6F6F6",
"1	c #C5C5C5",
"2	c #757575",
"3	c #626262",
"4	c #C6C6C6",
"5	c #BBBBBB",
"6	c #5D5D5D",
"7	c #E9E9E9",
"8	c #262626",
"9	c #D6D6D6",
"0	c #FDFDFD",
"a	c #777777",
"b	c #9D9D9D",
"c	c #BABABA",
"d	c #222222",
"e	c #9F9F9F",
"f	c #B9B9B9",
"g	c #E7E7E7",
"h	c #D7D7D7",
"i	c #9C9C9C",
"j	c #3B3B3B",
"k	c #E4E4E4",
"l	c #979797",
"m	c #E3E3E3",
"             ",
"             ",
"   .+@#$%    ",
"  &*****=-   ",
" ;*>,')!*~   ",
" {*]   ^**/  ",
" +*(   _:*)  ",
" <[_   }**|  ",
"       1*2   ",
"      [3*4   ",
"      5*6[   ",
"     78*9    ",
"    0a*b     ",
"    c*@|     ",
"   %d*9      ",
"  <2*e       ",
"  f*@|       ",
" gd*h        ",
" i**jjjjjjk  ",
" l********m  ",
"             "};
