/* XPM */
static char * zero_xpm[] = {
"13 21 44 1",
" 	c #FFFFFE",
".	c #D3D3D3",
"+	c #878787",
"@	c #535353",
"#	c #515151",
"$	c #868686",
"%	c #D1D1D1",
"&	c #BBBBBB",
"*	c #000000",
"=	c #B8B8B8",
"-	c #F1F1F1",
";	c #1C1C1C",
">	c #BDBDBD",
",	c #F6F6F6",
"'	c #BFBFBF",
")	c #F0F0F0",
"!	c #CECECE",
"~	c #7E7E7E",
"{	c #818181",
"]	c #CDCDCD",
"^	c #C0C0C0",
"/	c #A7A7A7",
"(	c #A9A9A9",
"_	c #BEBEBE",
":	c #AAAAAA",
"<	c #ADADAD",
"[	c #ACACAC",
"}	c #C9C9C9",
"|	c #8F8F8F",
"1	c #939393",
"2	c #C7C7C7",
"3	c #E9E9E9",
"4	c #DEDEDE",
"5	c #DFDFDF",
"6	c #E7E7E7",
"7	c #969696",
"8	c #0D0D0D",
"9	c #686868",
"0	c #696969",
"a	c #FAFAFA",
"b	c #323232",
"c	c #A8A8A8",
"d	c #FCFCFC",
"e	c #EDEDED",
"             ",
"             ",
"   .+@#$%    ",
"  &******=   ",
" -;*>,,'*;)  ",
" !*~    {*]  ",
" ^*/    (*_  ",
" _*:    <*&  ",
" _*:    <*&  ",
" _*:    <*&  ",
" _*:    <*&  ",
" _*:    <*&  ",
" _*:    <*&  ",
" _*:    <*&  ",
" _*:    <*&  ",
" '*(    [*>  ",
" }*|    1*2  ",
" 3*;4  5;*6  ",
"  7*8908*1   ",
"  a:b**bca   ",
"    deed     "};
