/* XPM */
static char * KEY_COMMA_xpm[] = {
"13 21 11 1",
" 	c #FFFFFF",
".	c #FCFCFC",
"+	c #A5A5A5",
"@	c #D2D2D1",
"#	c #FAFAFA",
"$	c #14100F",
"%	c #AEAEAE",
"&	c #B0B0B0",
"*	c #636262",
"=	c #F3F3F3",
"-	c #EDEDED",
"             ",
"             ",
"             ",
"             ",
"             ",
"             ",
"             ",
"             ",
"             ",
"             ",
"             ",
"             ",
"             ",
"             ",
"             ",
" .+@         ",
" #$%         ",
" #$&         ",
" #*=         ",
" .-          ",
"             "};
