/* XPM */
static char * CURSOR_xpm[] = {
"15 15 27 1",
" 	c #FFFFFF",
".	c #F2F2F2",
"+	c #F1F1F1",
"@	c #EEEEEE",
"#	c #A7A7A7",
"$	c #2A2A2A",
"}	c #D9D9D9",
"&	c #E7E7E7",
"*	c #9B9B9B",
"=	c #161616",
"-	c #838383",
";	c #D8D8D8",
">	c #E0E0E0",
",	c #8E8E8E",
"'	c #979797",
")	c #E4E4E4",
"!	c #F7F7F7",
"~	c #808080",
"{	c #2E2E2E",
"]	c #A8A8A8",
"^	c #EDEDED",
"/	c #7F7F7F",
"(	c #A9A9A9",
"_	c #DFDFDF",
":	c #8D8D8D",
"<	c #989898",
"[	c #848484",
"               ",
"               ",
"               ",
"               ",
"               ",
"               ",
"         .+    ",
"       @#$}    ",
"     &*=-;     ",
"   >,=')       ",
" !~{]^         ",
" !/{(^         ",
"   _:=<)       ",
"     &*=[;     ",
"       ^#$}    "};
